<svg version="1.1" id="Layer_1" xmlns="http://www.w3.org/2000/svg" xmlns:xlink="http://www.w3.org/1999/xlink" x="0px" y="0px"
	 width="100%" viewBox="0 0 720 400" enable-background="new 0 0 720 400" xml:space="preserve">
<path fill="#000000" opacity="1.000000" stroke="none" 
	d="
M1.000000,399.000000 
	C1.000000,282.975922 1.000000,166.951843 1.201881,50.688644 
	C4.198604,54.153214 8.793364,55.307831 12.214744,58.045238 
	C18.397102,62.991673 24.935966,63.203152 31.976263,60.659748 
	C37.313015,58.731773 42.699265,58.411682 48.158016,60.161911 
	C61.199757,64.343452 72.309402,61.303093 81.997948,51.649925 
	C88.241760,45.428902 94.864693,39.615555 102.618416,35.149906 
	C109.076775,31.430307 115.962296,28.241579 121.091820,22.517122 
	C122.565811,20.872179 124.563515,19.100946 123.747025,16.924936 
	C121.802818,11.743525 121.902802,6.303658 121.000000,1.000000 
	C284.357422,1.000000 447.714844,1.000000 611.331909,1.165696 
	C610.953918,1.861660 609.997131,2.483475 610.431946,3.324019 
	C612.601929,7.519398 612.500122,11.936640 612.153564,16.456289 
	C611.983459,18.675644 613.474243,20.062422 615.298950,21.164406 
	C627.076538,28.277044 639.579834,33.429668 653.194641,35.876240 
	C662.386780,37.528080 671.333496,40.223385 679.693054,44.429310 
	C685.542358,47.372246 691.644836,49.349377 697.932190,51.023258 
	C703.743103,52.570297 709.172363,51.678585 714.376282,49.128330 
	C716.563599,48.056385 718.590393,47.222286 721.000000,48.000000 
	C721.000000,165.618866 721.000000,283.237732 721.000000,401.000000 
	C487.642609,401.000000 254.285187,401.000000 20.432129,400.744080 
	C16.502155,396.718628 11.979045,395.555450 7.147028,395.302277 
	C4.358536,395.156158 1.895977,395.854492 1.000000,399.000000 
M151.500168,143.331360 
	C146.005081,143.330368 140.509949,143.312119 135.014938,143.332993 
	C128.821243,143.356522 128.373657,143.763779 128.371216,149.785034 
	C128.356110,186.919556 128.353378,224.054077 128.370193,261.188599 
	C128.373138,267.671967 129.365814,268.663818 135.967041,268.671112 
	C155.949677,268.693207 175.932480,268.626465 195.914932,268.686951 
	C198.798645,268.695679 201.577103,268.248016 204.254288,267.403076 
	C218.575592,262.883118 228.029434,253.466003 231.266190,238.717896 
	C234.359970,224.621140 230.813583,212.178772 219.217575,203.058411 
	C215.446945,200.092789 215.833374,198.236801 217.961456,194.649368 
	C231.306686,172.152512 215.061600,143.520828 188.968445,143.347992 
	C176.812851,143.267471 164.656265,143.332764 151.500168,143.331360 
M341.093872,267.562714 
	C370.154877,256.105438 386.836060,228.432449 382.239624,195.950806 
	C377.624237,163.335342 351.694336,141.258667 318.520966,140.154160 
	C274.918427,138.702393 243.868546,177.454041 251.767014,218.307648 
	C259.707825,259.380371 300.923370,282.130280 341.093872,267.562714 
M544.271729,271.215973 
	C548.088684,271.456635 551.903015,271.841217 555.723083,271.911285 
	C567.711975,272.131165 578.813171,269.238129 588.526184,261.964569 
	C608.516235,246.995087 608.687439,221.112946 588.995361,205.958603 
	C579.354004,198.538925 568.028625,194.482681 557.074158,189.669159 
	C553.266785,187.996124 549.332092,186.508377 546.170837,183.702805 
	C542.676941,180.601929 542.760864,176.969604 546.232727,173.837860 
	C548.148804,172.109497 550.518372,171.322845 552.940186,170.693985 
	C560.919922,168.622025 568.491150,170.242554 575.678406,173.713928 
	C578.704773,175.175644 580.544373,174.696533 582.404602,172.058716 
	C586.144653,166.755127 589.902344,161.448593 593.960449,156.390076 
	C596.577148,153.128296 595.758667,151.324951 592.482666,149.377579 
	C588.436951,146.972702 584.186157,145.066193 579.728760,143.740005 
	C562.390320,138.581268 545.331238,137.463104 529.456055,148.322800 
	C506.949310,163.718979 506.647156,191.869705 528.802551,207.595978 
	C534.113953,211.366058 539.914978,214.267151 545.872498,216.898788 
	C551.654785,219.453018 557.404236,222.106201 563.021606,225.000320 
	C566.663818,226.876846 570.091492,229.498459 569.187866,234.252396 
	C568.347656,238.672668 564.888855,240.728714 560.638245,241.501038 
	C549.922668,243.448059 540.619202,239.790970 532.081909,233.868713 
	C528.892151,231.656021 526.854309,231.827209 524.628052,234.876022 
	C520.703247,240.251099 516.688232,245.562897 512.604187,250.818237 
	C510.168549,253.952545 510.450134,256.304260 513.751038,258.720245 
	C522.663696,265.243561 532.525696,269.328491 544.271729,271.215973 
M451.210632,241.216721 
	C439.759888,243.895203 429.848175,239.951309 420.730896,233.631561 
	C417.356598,231.292572 415.517090,231.901031 413.397400,234.885544 
	C410.410156,239.091461 407.202820,243.140350 404.135559,247.290359 
	C397.962097,255.643036 397.974884,255.652481 406.799133,261.589478 
	C426.817017,275.057587 458.267487,275.459808 476.817993,262.485016 
	C497.330444,248.137894 497.956238,221.384003 478.174591,206.149506 
	C472.316437,201.637985 465.788177,198.350754 459.105408,195.319016 
	C452.133728,192.156204 445.088531,189.147934 438.194153,185.825775 
	C435.186249,184.376373 432.215393,182.428406 432.712128,178.316315 
	C433.204163,174.243469 436.240448,172.585327 439.683594,171.352127 
	C448.261963,168.279663 456.445496,170.002136 464.358063,173.593719 
	C467.345032,174.949539 469.344177,174.530655 471.222504,171.943314 
	C474.940491,166.821945 478.677246,161.709213 482.575989,156.725693 
	C485.399109,153.117096 484.394928,150.979095 480.627289,148.919800 
	C472.928436,144.711807 464.753204,141.885406 456.136414,140.743332 
	C438.348053,138.385635 422.260162,141.728485 409.959900,156.092499 
	C397.689056,170.422104 398.551178,189.694504 411.980011,202.858566 
	C418.408966,209.160751 426.394928,212.917801 434.366119,216.733597 
	C440.368317,219.606796 446.800140,221.594009 452.410675,225.264099 
	C460.652649,230.655548 460.472870,236.096176 451.210632,241.216721 
z"/>
<path fill="#000000" opacity="1.000000" stroke="none" 
	d="
M198.652557,226.677673 
	C199.412048,235.159119 194.454086,241.086670 186.506714,241.303497 
	C179.196518,241.502930 171.875732,241.278824 164.561096,241.366196 
	C161.522614,241.402496 159.814636,240.345840 159.852890,237.092850 
	C159.917419,231.607452 159.937408,226.121292 159.936295,220.635452 
	C159.935684,217.667496 161.416489,216.575089 164.304474,216.613022 
	C171.618912,216.709076 178.938293,216.516830 186.250366,216.679214 
	C192.812698,216.824951 196.232971,219.658905 198.652557,226.677673 
z"/>
<path fill="#000000" opacity="1.000000" stroke="none" 
	d="
M162.383484,169.894913 
	C168.152847,169.775528 173.465515,169.614532 178.771759,169.735031 
	C186.851990,169.918518 191.783920,174.563293 191.771851,181.725433 
	C191.761032,188.146790 186.854172,192.731598 179.153397,193.117371 
	C174.187317,193.366150 169.198578,193.143234 164.220245,193.173996 
	C161.383636,193.191544 159.865082,191.918015 159.861404,189.007629 
	C159.854904,183.863281 159.821503,178.718842 159.844696,173.574646 
	C159.851700,172.021515 160.210678,170.586670 162.383484,169.894913 
z"/>
<path fill="#000000" opacity="1.000000" stroke="none" 
	d="
M341.593384,229.531586 
	C329.931641,241.990234 314.656219,244.809891 301.132080,237.228882 
	C287.447723,229.558075 280.749847,212.028748 285.255005,195.676132 
	C289.744537,179.380264 304.763947,168.714752 320.339478,170.762024 
	C336.968353,172.947784 348.835480,186.545197 349.479553,203.602936 
	C349.839172,213.127823 347.864594,221.744293 341.593384,229.531586 
z"/>
</svg>